# xmcd CD database file
#
# Track frame offsets:
#	150
#	18388
#	40924
#	59696
#	78276
#	99152
#	120579
#	138957
#	156774
#	172526
#	189948
#
# Disc length: 2774 seconds
#
# Revision: 0
# Processed by: cddbd v1.4PL0 Copyright (c) Steve Scherf et al.
# Submitted via: CDex 1.40Release
#
DISCID=7a0ad40b
DTITLE=Angela Kaset - Live At The Bluebird Cafe
DYEAR=2000
DGENRE=Country
TTITLE0=You Will Always Wonder
TTITLE1=Something In Red
TTITLE2=From The Inside Out
TTITLE3=Wreck Of A Heart
TTITLE4=Resurrection
TTITLE5=Mostest Brokest Heart
TTITLE6=What If It's Me?
TTITLE7=Lila and the Dancing Bears
TTITLE8=Memory #9
TTITLE9=Where Are You?
TTITLE10=Jones For You
EXTD=YEAR: 2000 ID3G: 2
EXTT0=
EXTT1=
EXTT2=
EXTT3=
EXTT4=
EXTT5=
EXTT6=
EXTT7=
EXTT8=
EXTT9=
EXTT10=
PLAYORDER=
